<?xml version="1.0"?><svg width="25" height="25" viewBox="0 0 25 25" version="1.1" id="svg1" xmlns="http://www.w3.org/2000/svg">
  <defs id="defs1"></defs>
  
  <g id="g1" transform="scale(0.03496503)" style="stroke-width:28.6">
    <rect x="0" y="0" width="715" height="715" rx="157" ry="157" fill="#fbc711" id="rect1" style="stroke-width:20.449"></rect>
    <path d="m 405,82 -4,1 -7,27 -12,25 -34,59 -16,41 -6,28 -1,34 3,18 6,15 -1,3 -22,-24 -19,-36 -11,-43 -9,-85 -7,-23 -11,-21 -4,-1 -53,30 18,42 14,62 8,25 16,34 19,27 15,15 15,11 19,9 v 3 h -14 l -22,-4 -29,-10 -40,-23 -68,-51 -19,-10 -18,-6 -13,-1 -16,55 1,5 35,11 85,47 36,13 32,6 h 26 l 21,-4 12,-5 3,1 -15,16 -13,10 -39,20 -31,9 -85,15 -24,9 -17,10 -4,6 32,52 30,-17 79,-25 49,-24 16,-11 22,-21 15,-21 7,-17 h 3 l -3,33 -10,31 -23,41 -50,66 -10,18 -9,26 -1,7 2,2 55,16 5,-2 1,-9 9,-24 38,-67 21,-51 7,-36 v -26 l -3,-18 -6,-15 1,-3 22,24 18,34 12,48 9,83 5,18 10,21 6,6 54,-30 -17,-40 -17,-72 -18,-46 -15,-24 -19,-21 -22,-16 -17,-7 v -3 l 28,2 34,10 47,27 62,47 18,10 27,9 h 8 l 16,-55 -1,-5 -28,-8 -64,-36 -32,-16 -27,-10 -27,-6 -36,-1 -36,8 25,-24 39,-21 34,-10 82,-14 23,-8 18,-10 7,-8 -32,-52 -34,19 -77,24 -49,24 -19,14 -19,19 -12,17 -8,19 h -3 l 2,-28 12,-38 22,-39 48,-63 14,-27 7,-28 z" fill="#111827" id="path1" style="fill:#000000;stroke-width:28.6"></path>
  </g>
</svg>